<svg xmlns="http://www.w3.org/2000/svg" viewBox="0 0 223 66"><path d="M178.8 22.7c4.5-1 6.8-3.7 6.8-8.2 0-2.6-0.8-4.7-2.6-6.3 -1.7-1.6-4-2.3-6.9-2.3l-22 0 0 22.4 -30 0 -0.8 0 0-7 15.9 0 0-4.8 -15.9 0 0-5.9 22.9 0 0-4.8 -28.2 0 0 22.4 -6.8 0 -23.9 0 0-7 16 0 0-4.8 -16 0 0-5.9 22.9 0 0-4.8 -28.2 0 0 22.4 -30.2 0 0-27.2 -5.3 0 0 32 113 0 0-10 13.5 0 7.1 10 6.1 0 -7.3-10.3 0 0Zm-19.4-4.5l0-7.6 15.6 0c3.4 0 5.1 1.3 5.1 3.9 0 2.5-1.6 3.7-4.8 3.7l-15.9 0 0 0Zm58.8 26.7c-3.5-1.8-7.4-2.8-11.5-2.8 -6 0-9.1 1.1-9.1 3.2 0 1.3 1.1 2.1 3.4 2.5 3.1 0.3 6.2 0.6 9.3 0.8 4.4 0.4 7.6 1.2 9.5 2.4 2.1 1.3 3.1 3.2 3.1 5.8 0 2.9-1.3 5.2-3.9 6.8 -2.6 1.6-6.4 2.4-11.3 2.4 -7 0-12.6-1.6-16.7-4.8l2.9-3.7c3.7 2.6 8.3 3.9 13.8 3.9 3.1 0 5.4-0.4 7.1-1.2 1.7-0.8 2.5-1.8 2.5-3.1 0-1.4-1-2.5-3.1-3.1 -1.2-0.3-2.9-0.5-5.4-0.7 -3.8-0.2-6.1-0.3-6.9-0.4 -3.4-0.3-5.8-1-7.4-2.2 -1.6-1.1-2.4-2.7-2.4-4.9 0-2.6 1.3-4.6 3.8-6.2 2.5-1.5 6.1-2.3 10.7-2.3 6.1 0 11.1 1.3 14.9 4l-3.3 3.5 0 0Zm-32.1 20.4l-6.1 0 -7.1-10 -13.5 0 0 10 -5.3 0 0-27.1 22 0c2.9 0 5.2 0.8 6.9 2.3 1.7 1.6 2.6 3.7 2.6 6.3 0 4.5-2.3 7.2-6.8 8.3l7.3 10.3Zm-10.8-14.7c3.2 0 4.8-1.2 4.8-3.7 0-2.6-1.7-3.9-5.1-3.9l-15.5 0 0 7.6 15.9 0Zm-28 14.7l-29.3 0 0-27.1 28.2 0 0 4.8 -22.9 0 0 5.9 15.9 0 0 4.8 -15.9 0 0 7 23.9 0 0 4.8 0 0Zm-32.6 0l-6.8 0 -13-13.8 -7.7 5.6 0 8.2 -5.3 0 0-27.1 5.3 0 0 13.3 18.5-13.3 7.9 0 -14.6 10.4 15.7 16.7 0 0Zm-36.4 0l-5.8 0 -3.1-5.8 -18.3 0 -3.1 5.8 -5.8 0 14.8-27.1 6.6 0 14.8 27.1Zm-11.6-10.6l-6.4-12 -6.5 12 13 0Zm-28.5 10.6l-5.3 0 -0.1-22.3 -13.6 18.5 -13.6-18.7 -0.1 0.2 0 22.3 -5.3 0 0-27.1 8 0 11.1 15.4 11.1-15.4 8 0 0 27.1Zm-9.5-65.4c-5.1 0-9.3 4.2-9.3 9.3 0 5.1 4.2 9.3 9.3 9.3 5.1 0 9.3-4.2 9.3-9.3 0-5.1-4.2-9.3-9.3-9.3Zm0 2.1c4 0 7.2 3.2 7.2 7.2 0 1.3-0.4 2.6-1 3.6l-4.9-8.9 -2.6 0 -4.9 9c-0.6-1.1-1-2.3-1-3.7 0-4 3.2-7.2 7.2-7.2Zm2.6 8.5l-5.1 0 2.6-4.8 2.6 4.8 0 0Zm-7.4 4.1l1.2-2.2 7.2 0 1.2 2.2c-1.3 1.2-3 1.9-4.8 1.9 -1.8 0-3.5-0.7-4.8-1.8Z"/></svg>