<?xml version="1.0" standalone="no"?>
<!DOCTYPE svg PUBLIC "-//W3C//DTD SVG 20010904//EN"
 "http://www.w3.org/TR/2001/REC-SVG-20010904/DTD/svg10.dtd">
<svg version="1.0" xmlns="http://www.w3.org/2000/svg"
 width="700.000000pt" height="700.000000pt" viewBox="0 0 700.000000 700.000000"
 preserveAspectRatio="xMidYMid meet">
<metadata>
Created by potrace 1.11, written by Peter Selinger 2001-2013
</metadata>
<g transform="translate(0.000000,700.000000) scale(0.100000,-0.100000)"
fill="#000000" stroke="none">
<path d="M3308 6995 c-2 -2 -39 -6 -83 -9 -44 -4 -87 -9 -95 -11 -8 -2 -37 -6
-65 -10 -27 -3 -84 -13 -125 -21 -41 -9 -83 -17 -92 -19 -69 -14 -266 -72
-355 -104 -417 -149 -800 -370 -1153 -665 -136 -114 -328 -301 -436 -426 -21
-25 -41 -47 -44 -50 -33 -30 -260 -333 -260 -347 0 -3 -8 -16 -19 -27 -55 -61
-243 -406 -324 -596 -72 -170 -168 -473 -191 -600 -2 -14 -11 -63 -20 -110
-33 -182 -41 -277 -41 -495 0 -275 19 -434 80 -691 115 -480 344 -945 671
-1364 46 -58 94 -118 109 -135 107 -121 156 -173 251 -267 489 -479 1083 -816
1697 -963 150 -36 169 -39 287 -55 143 -20 226 -25 400 -25 157 1 355 11 369
19 3 2 31 7 61 10 144 17 446 94 615 158 427 160 801 383 1170 698 77 66 299
285 355 350 12 14 31 36 43 50 325 374 577 810 726 1259 48 143 115 411 125
501 3 25 8 63 11 85 22 155 28 525 11 650 -3 22 -8 60 -11 85 -32 246 -97 495
-198 755 -47 122 -206 448 -256 525 -210 323 -268 402 -456 615 -74 84 -250
257 -350 345 -127 110 -364 287 -477 355 -9 5 -56 34 -105 63 -187 112 -455
236 -668 309 -96 33 -299 87 -370 99 -16 3 -46 9 -65 14 -19 5 -78 14 -130 20
-52 6 -106 14 -120 16 -28 6 -467 14 -472 9z m452 -798 c14 -3 59 -11 100 -17
72 -12 142 -26 240 -50 243 -58 579 -211 820 -373 137 -92 318 -239 440 -358
61 -60 213 -227 247 -274 13 -17 37 -48 54 -70 282 -361 487 -864 536 -1318
10 -90 9 -392 -1 -472 -39 -309 -125 -624 -236 -871 -36 -78 -99 -205 -114
-225 -13 -19 -14 -19 -30 5 -9 14 -16 27 -16 29 0 3 -40 76 -88 163 -49 88
-106 191 -127 229 -169 308 -311 567 -332 605 -14 25 -64 115 -110 200 -47 85
-98 178 -113 205 -129 234 -186 337 -210 380 -15 28 -78 142 -140 255 -62 113
-125 228 -140 255 -15 28 -75 136 -133 240 -162 294 -279 507 -297 540 -8 17
-39 73 -68 125 l-53 95 -482 -1 c-540 -2 -507 -1 -507 -12 0 -5 -46 -91 -101
-193 -56 -101 -133 -242 -171 -314 -39 -71 -82 -150 -95 -175 -14 -25 -41 -74
-60 -110 -20 -36 -46 -83 -58 -105 -13 -22 -37 -67 -55 -100 -17 -33 -44 -82
-59 -110 -15 -27 -46 -84 -68 -125 -22 -41 -49 -91 -60 -110 -11 -19 -44 -80
-73 -135 -29 -55 -56 -104 -60 -110 -4 -5 -26 -45 -49 -88 -22 -42 -124 -229
-225 -415 -101 -185 -197 -362 -214 -392 -78 -144 -258 -475 -297 -545 -12
-22 -59 -110 -105 -194 l-84 -155 -55 115 c-63 127 -84 177 -129 294 -28 75
-88 262 -97 302 -2 10 -13 56 -24 103 -21 86 -43 220 -58 340 -14 125 -6 539
12 570 2 3 6 25 9 50 24 177 109 453 202 651 183 391 455 747 779 1016 50 41
101 84 114 95 91 77 364 245 506 312 217 103 521 202 680 221 22 3 51 7 64 10
13 2 56 7 95 11 39 3 73 8 75 10 5 5 393 -4 421 -9z m-167 -1482 c24 -44 62
-114 84 -155 49 -90 550 -1018 600 -1110 20 -36 48 -87 63 -115 123 -224 171
-317 168 -321 -3 -2 -442 -3 -976 -2 l-971 3 95 175 c53 96 111 204 130 240
19 36 39 72 44 80 5 8 53 96 106 195 53 99 112 209 132 245 67 124 90 166 249
460 88 162 173 319 188 348 15 29 31 50 36 45 4 -4 28 -44 52 -88z m1325
-2535 c35 -63 86 -158 114 -210 29 -52 64 -117 80 -143 15 -26 28 -50 28 -52
0 -2 36 -70 80 -150 44 -80 80 -150 80 -155 0 -5 -31 -35 -70 -68 -296 -249
-696 -453 -1105 -562 -119 -32 -125 -33 -264 -56 -177 -29 -392 -37 -566 -21
-80 8 -313 45 -325 52 -4 2 -17 6 -31 8 -279 53 -756 258 -1024 441 -106 73
-215 158 -216 170 -4 31 5 53 83 196 47 85 102 187 123 225 21 39 51 93 66
121 80 145 129 237 129 241 0 2 11 20 24 41 l23 37 1354 0 1353 0 64 -115z"/>
</g>
</svg>
